<?xml version="1.0" encoding="UTF-8"?>
<svg xmlns="http://www.w3.org/2000/svg" id="a" width="865.76" height="682.89" viewBox="0 0 865.76 682.89">
  <g>
    <g>
      <rect x="39.88" y="30.1" width="128" height="162" fill="#4800ff"></rect>
      <path d="M168.38,192.6H39.38V29.6H168.38V192.6Zm-128-1h127V30.6H40.38V191.6Z" fill="#002346"></path>
    </g>
    <g>
      <rect x="51.38" y="44.6" width="106" height="134" fill="#fff"></rect>
      <path d="M157.88,179.1H50.88V44.1h107V179.1Zm-106-1h105V45.1H51.88V178.1Z" fill="#002346"></path>
    </g>
    <g>
      <g>
        <circle cx="90.88" cy="86.6" r="19" fill="#4800ff"></circle>
        <path d="M90.88,106.1c-10.75,0-19.5-8.75-19.5-19.5s8.75-19.5,19.5-19.5,19.5,8.75,19.5,19.5-8.75,19.5-19.5,19.5Zm0-38c-10.2,0-18.5,8.3-18.5,18.5s8.3,18.5,18.5,18.5,18.5-8.3,18.5-18.5-8.3-18.5-18.5-18.5Z" fill="#002346"></path>
      </g>
      <g>
        <rect x="99.88" y="78.6" width="25" height="48" fill="#000000"></rect>
        <path d="M125.38,127.1h-26v-49h26v49Zm-25-1h24v-47h-24v47Z" fill="#002346"></path>
      </g>
      <g>
        <rect x="74.88" y="105.6" width="32" height="46" fill="#7cd295"></rect>
        <path d="M107.38,152.1h-33v-47h33v47Zm-32-1h31v-45h-31v45Z" fill="#002346"></path>
      </g>
      <g>
        <circle cx="116.88" cy="143.6" r="20" fill="#4800ff"></circle>
        <path d="M116.88,164.1c-11.3,0-20.5-9.2-20.5-20.5s9.2-20.5,20.5-20.5,20.5,9.2,20.5,20.5-9.2,20.5-20.5,20.5Zm0-40c-10.75,0-19.5,8.75-19.5,19.5s8.75,19.5,19.5,19.5,19.5-8.75,19.5-19.5-8.75-19.5-19.5-19.5Z" fill="#002346"></path>
      </g>
    </g>
  </g>
  <g>
    <g>
      <rect x="680.88" y="30.1" width="128" height="162" transform="translate(633.78 855.98) rotate(-90)" fill="#4800ff"></rect>
      <path d="M826.38,46.6V175.6h-163V46.6h163Zm-1,128V47.6h-161v127h161Z" fill="#002346"></path>
    </g>
    <g>
      <rect x="692.38" y="43.6" width="106" height="134" transform="translate(634.78 855.98) rotate(-90)" fill="#fff"></rect>
      <path d="M812.88,57.1v107h-135V57.1h135Zm-1,106V58.1h-133v105h133Z" fill="#002346"></path>
    </g>
    <g>
      <g>
        <circle cx="720.38" cy="124.1" r="19" fill="#4800ff"></circle>
        <path d="M739.88,124.1c0,10.75-8.75,19.5-19.5,19.5s-19.5-8.75-19.5-19.5,8.75-19.5,19.5-19.5,19.5,8.75,19.5,19.5Zm-38,0c0,10.2,8.3,18.5,18.5,18.5s18.5-8.3,18.5-18.5-8.3-18.5-18.5-18.5-18.5,8.3-18.5,18.5Z" fill="#002346"></path>
      </g>
      <g>
        <rect x="723.88" y="78.6" width="25" height="48" transform="translate(633.78 838.98) rotate(-90)" fill="#000000"></rect>
        <path d="M760.88,89.6v26h-49v-26h49Zm-1,25v-24h-47v24h47Z" fill="#002346"></path>
      </g>
      <g>
        <rect x="746.38" y="101.1" width="32" height="46" transform="translate(638.28 886.48) rotate(-90)" fill="#7cd295"></rect>
        <path d="M785.88,107.6v33h-47v-33h47Zm-1,32v-31h-45v31h45Z" fill="#002346"></path>
      </g>
      <g>
        <circle cx="777.38" cy="98.1" r="20" fill="#4800ff"></circle>
        <path d="M797.88,98.1c0,11.3-9.2,20.5-20.5,20.5s-20.5-9.2-20.5-20.5,9.2-20.5,20.5-20.5,20.5,9.2,20.5,20.5Zm-40,0c0,10.75,8.75,19.5,19.5,19.5s19.5-8.75,19.5-19.5-8.75-19.5-19.5-19.5-19.5,8.75-19.5,19.5Z" fill="#002346"></path>
      </g>
    </g>
  </g>
  <g>
    <g>
      <path d="M437.34,643.66s-4.19,4.86,0,7.73h90.92s.66-5.75-4.86-7.73c0,0-7.5,.92-19.2-1.33l-3.31,2.42-63.56-1.1Z" fill="#fff"></path>
      <path d="M528.67,651.85h-91.48l-.12-.08c-1.18-.81-1.87-1.85-2.03-3.08-.35-2.64,1.85-5.22,1.94-5.33l.14-.16,63.62,1.1,3.34-2.45,.2,.04c11.48,2.21,18.99,1.33,19.06,1.32h.11s.1,.02,.1,.02c5.8,2.08,5.16,8.16,5.16,8.22l-.05,.41Zm-91.19-.92h90.34c.03-1.29-.24-5.22-4.48-6.8-.98,.1-8.27,.74-19.03-1.31l-3.27,2.4-63.49-1.1c-.44,.57-1.84,2.55-1.59,4.45,.12,.92,.63,1.72,1.52,2.36Z" fill="#002346"></path>
    </g>
    <g>
      <g>
        <ellipse cx="565.69" cy="173.67" rx="13.58" ry="13.97" fill="#000000"></ellipse>
        <path d="M565.69,188.1c-7.74,0-14.04-6.47-14.04-14.43s6.3-14.43,14.04-14.43,14.04,6.47,14.04,14.43-6.3,14.43-14.04,14.43Zm0-27.94c-7.24,0-13.12,6.06-13.12,13.51s5.89,13.51,13.12,13.51,13.12-6.06,13.12-13.51-5.89-13.51-13.12-13.51Z" fill="#002346"></path>
      </g>
      <g>
        <rect x="689.77" y="235.95" width="15.52" height="17.85" rx="2.28" ry="2.28" transform="translate(1395.06 489.75) rotate(-180)" fill="#4800ff"></rect>
        <path d="M703.02,254.26h-10.97c-1.51,0-2.74-1.23-2.74-2.74v-13.3c0-1.51,1.23-2.74,2.74-2.74h10.97c1.51,0,2.74,1.23,2.74,2.74v13.3c0,1.51-1.23,2.74-2.74,2.74Zm-10.97-17.85c-1,0-1.81,.81-1.81,1.81v13.3c0,1,.81,1.81,1.81,1.81h10.97c1,0,1.81-.81,1.81-1.81v-13.3c0-1-.81-1.81-1.81-1.81h-10.97Z" fill="#002346"></path>
      </g>
      <g>
        <rect x="686.67" y="235.95" width="15.52" height="17.85" rx="2.28" ry="2.28" transform="translate(1388.85 489.75) rotate(-180)" fill="#4800ff"></rect>
        <path d="M699.91,254.26h-10.97c-1.51,0-2.74-1.23-2.74-2.74v-13.3c0-1.51,1.23-2.74,2.74-2.74h10.97c1.51,0,2.74,1.23,2.74,2.74v13.3c0,1.51-1.23,2.74-2.74,2.74Zm-10.97-17.85c-1,0-1.81,.81-1.81,1.81v13.3c0,1,.81,1.81,1.81,1.81h10.97c1,0,1.81-.81,1.81-1.81v-13.3c0-1-.81-1.81-1.81-1.81h-10.97Z" fill="#002346"></path>
      </g>
      <path d="M694.43,250.38c-3.25,0-5.89-2.64-5.89-5.89s2.64-5.89,5.89-5.89,5.89,2.64,5.89,5.89-2.64,5.89-5.89,5.89Zm0-10.87c-2.74,0-4.97,2.23-4.97,4.97s2.23,4.97,4.97,4.97,4.97-2.23,4.97-4.97-2.23-4.97-4.97-4.97Z" fill="#0d2445"></path>
      <g>
        <path d="M664.16,313.56l31.11-66.77c.4-.85,.04-1.86-.79-2.28h0c-.87-.44-1.94-.06-2.35,.82l-31.07,67.45,3.1,.78Z" fill="#e6e7e8"></path>
        <path d="M664.41,314.1l-4.01-1,31.31-67.96c.25-.54,.7-.95,1.26-1.15,.57-.2,1.17-.16,1.71,.11,1.07,.53,1.51,1.8,1.01,2.89l-31.27,67.12Zm-2.71-1.63l2.2,.55,30.95-66.43c.29-.63,.04-1.36-.58-1.67-.31-.15-.66-.18-.99-.06-.33,.11-.59,.35-.73,.67l-30.84,66.95Z" fill="#002346"></path>
      </g>
      <g>
        <path d="M692.84,240.07l-79.5-83.35c-.65-.68-1.72-.72-2.42-.09h0c-.72,.66-.76,1.78-.09,2.48l79.73,83.13c.68,.71,1.85,.63,2.42-.18h0c.44-.61,.37-1.45-.14-2Z" fill="#e6e7e8"></path>
        <path d="M691.7,243.19c-.55,0-1.08-.22-1.47-.63l-79.73-83.13c-.41-.43-.63-1-.61-1.59,.02-.6,.28-1.15,.72-1.55,.89-.8,2.23-.75,3.06,.11l79.5,83.35c.67,.7,.75,1.79,.19,2.58-.35,.5-.9,.81-1.51,.85-.05,0-.1,0-.15,0Zm-79.61-86.55c-.3,0-.61,.11-.85,.33-.26,.23-.41,.55-.42,.9s.11,.67,.35,.92l79.73,83.13c.23,.24,.56,.35,.88,.34,.33-.03,.63-.2,.83-.47,.31-.43,.26-1.03-.1-1.41h0s-79.5-83.35-79.5-83.35c-.25-.26-.58-.4-.92-.4Z" fill="#002346"></path>
      </g>
      <g>
        <path d="M438.6,430.16s7.3,2.52,8.56,5.29c0,0,5.8,8.29,7.3,9.56,0,0,4.28,5.03,6.3,23.96l1.58,20.21c1.13,14.44,3.37,28.77,6.72,42.86l16.88,71.07-8.81,6.08-11.33-6.08s-8.56-27.91-14.6-33.17l-18.43-129.65,5.84-10.14Z" fill="#f2b3c1"></path>
        <path d="M477.15,609.73l-11.75-6.3-.06-.18c-.09-.28-8.59-27.84-14.47-32.96l-.13-.11-.02-.17-18.45-129.81,6.11-10.6,.36,.12c.31,.11,7.5,2.61,8.83,5.53,1.95,2.78,6.02,8.43,7.18,9.4,.23,.26,4.45,5.41,6.46,24.26l1.58,20.23c1.12,14.37,3.38,28.77,6.71,42.79l16.95,71.38-9.3,6.42Zm-10.98-6.94l10.92,5.86,8.32-5.74-16.8-70.77c-3.34-14.07-5.6-28.51-6.73-42.93l-1.58-20.21c-1.98-18.56-6.15-23.64-6.19-23.69-1.48-1.24-7.09-9.26-7.32-9.6-.95-2.08-5.78-4.19-7.97-4.99l-5.57,9.67,18.38,129.33c5.87,5.38,13.75,30.48,14.56,33.08Z" fill="#002346"></path>
      </g>
      <g>
        <rect x="342.62" y="624.93" width="3.51" height="5.09" fill="#e6e7e8"></rect>
        <path d="M346.59,630.48h-4.43v-6.01h4.43v6.01Zm-3.51-.92h2.59v-4.16h-2.59v4.16Z" fill="#002346"></path>
      </g>
      <g>
        <rect x="172.83" y="624.93" width="3.51" height="5.09" fill="#e6e7e8"></rect>
        <path d="M176.8,630.48h-4.43v-6.01h4.43v6.01Zm-3.51-.92h2.59v-4.16h-2.59v4.16Z" fill="#002346"></path>
      </g>
      <g>
        <rect x="255.05" y="521.87" width="8.83" height="28.25" fill="#fff"></rect>
        <path d="M264.34,550.58h-9.75v-29.17h9.75v29.17Zm-8.83-.92h7.91v-27.33h-7.91v27.33Z" fill="#002346"></path>
      </g>
      <g>
        <path d="M269.31,585.42v-27.66c0-5.44-4.41-9.85-9.85-9.85h0c-5.44,0-9.85,4.41-9.85,9.85v27.66l-87.54,34.73v8.83l86.8-22.51h22.8l84.9,22.51v-9.42l-87.26-34.14Z" fill="#e6e7e8"></path>
        <path d="M357.03,629.58l-.58-.15-84.84-22.49h-22.69l-87.32,22.64v-9.74l87.54-34.73v-27.34c0-5.69,4.63-10.32,10.31-10.32s10.31,4.63,10.31,10.32v27.34l87.26,34.14v10.33Zm-194.51-9.11v7.92l86.28-22.37,22.98,.02,84.32,22.36v-8.5l-87.26-34.14v-27.97c0-5.18-4.21-9.39-9.39-9.39s-9.39,4.21-9.39,9.39v27.97l-87.54,34.73Z" fill="#002346"></path>
      </g>
      <g>
        <ellipse cx="345.63" cy="640.2" rx="10.93" ry="11.22" fill="#fff"></ellipse>
        <path d="M345.63,651.88c-6.28,0-11.39-5.24-11.39-11.68s5.11-11.68,11.39-11.68,11.39,5.24,11.39,11.68-5.11,11.68-11.39,11.68Zm0-22.45c-5.77,0-10.47,4.83-10.47,10.76s4.7,10.76,10.47,10.76,10.47-4.83,10.47-10.76-4.7-10.76-10.47-10.76Z" fill="#002346"></path>
      </g>
      <g>
        <ellipse cx="343.3" cy="640.2" rx="10.93" ry="11.22" fill="#e6e7e8"></ellipse>
        <path d="M343.3,651.88c-6.28,0-11.39-5.24-11.39-11.68s5.11-11.68,11.39-11.68,11.39,5.24,11.39,11.68-5.11,11.68-11.39,11.68Zm0-22.45c-5.77,0-10.47,4.83-10.47,10.76s4.7,10.76,10.47,10.76,10.47-4.83,10.47-10.76-4.7-10.76-10.47-10.76Z" fill="#002346"></path>
      </g>
      <g>
        <ellipse cx="175.84" cy="640.2" rx="10.93" ry="11.22" fill="#fff"></ellipse>
        <path d="M175.84,651.88c-6.28,0-11.39-5.24-11.39-11.68s5.11-11.68,11.39-11.68,11.39,5.24,11.39,11.68-5.11,11.68-11.39,11.68Zm0-22.45c-5.77,0-10.47,4.83-10.47,10.76s4.7,10.76,10.47,10.76,10.47-4.83,10.47-10.76-4.7-10.76-10.47-10.76Z" fill="#002346"></path>
      </g>
      <g>
        <ellipse cx="316.43" cy="639.17" rx="10.93" ry="11.22" fill="#e6e7e8"></ellipse>
        <path d="M316.43,650.85c-6.28,0-11.39-5.24-11.39-11.68s5.11-11.68,11.39-11.68,11.39,5.24,11.39,11.68-5.11,11.68-11.39,11.68Zm0-22.45c-5.77,0-10.47,4.83-10.47,10.76s4.7,10.76,10.47,10.76,10.47-4.83,10.47-10.76-4.7-10.76-10.47-10.76Z" fill="#002346"></path>
      </g>
      <g>
        <path d="M273.16,608.29l46.63,16.64s-.53-7.75,0-8.32-46.52-10.07-46.52-10.07l-.11,1.75Z" fill="#e6e7e8"></path>
        <path d="M320.3,625.6l-47.62-16.99,.17-2.62,.52,.1c46.55,9.4,46.76,10.03,46.87,10.36l.08,.26-.19,.21c-.22,.48-.12,4.45,.12,7.98l.05,.7Zm-46.65-17.63l45.64,16.29c-.18-2.89-.3-6.1-.04-7.41-3.11-1.03-28.34-6.27-45.55-9.75l-.06,.88Z" fill="#002346"></path>
      </g>
      <g>
        <path d="M299.32,532.76c4.32,0,7.62-3.88,6.92-8.14l-3.09-18.93h-34.14v-13.39h-19.71v21.04c0,5.44,4.41,9.85,9.85,9.85h0c5.44,0,9.85-4.41,9.85-9.85v-2.5s25.32,0,25.32,0l-1.97,13.92c-.6,4.22,2.68,8,6.95,8h0Z" fill="#e6e7e8"></path>
        <path d="M299.32,533.22c-2.17,0-4.22-.94-5.64-2.57-1.42-1.64-2.06-3.8-1.76-5.95l1.89-13.4h-24.33v2.04c0,5.69-4.63,10.32-10.31,10.32s-10.32-4.63-10.32-10.32v-21.5h20.63v13.39h34.07l3.15,19.31c.35,2.17-.26,4.37-1.68,6.04-1.42,1.67-3.5,2.63-5.7,2.63Zm-30.76-22.84h26.31l-2.04,14.45c-.27,1.88,.3,3.78,1.54,5.21,1.25,1.43,3.05,2.26,4.95,2.26s3.75-.84,4.99-2.31,1.79-3.4,1.48-5.3l-3.02-18.54h-34.21v-13.39h-18.79v20.58c0,5.18,4.21,9.39,9.39,9.39s9.39-4.21,9.39-9.39v-2.96Z" fill="#002346"></path>
      </g>
      <g>
        <path d="M443.64,624.93c-1.17-16.4-13.29-40.74-18.76-50.98-1.34-2.55-2.84-5.01-4.5-7.37-11.3-15.95-18.97-38.79-22.05-49.05-.99-3.32-.93-6.86,.18-10.14,3.34-10.4,5.55-21.13,6.61-32l25.17-43.31s12.12,15.94,11.84,30.79c0,0,4.52,86.35,10.57,106.74l15.11,67.47-24.17-12.17Z" fill="#f2b3c1"></path>
        <path d="M468.47,637.95l-25.27-12.73-.02-.26c-1.18-16.46-13.47-41.01-18.71-50.8-1.33-2.52-2.83-4.99-4.47-7.32-11.52-16.26-19.3-39.81-22.11-49.18-1.03-3.43-.96-7.03,.18-10.42,3.32-10.34,5.53-21.08,6.58-31.9l.06-.19,25.52-43.9,.42,.55c.12,.16,12.21,16.24,11.93,31.08,.04,.83,4.59,86.5,10.55,106.6l15.33,68.45Zm-24.39-13.32l23.07,11.62-14.9-66.52c-5.98-20.18-10.53-105.96-10.58-106.82,.24-13.01-9.23-27.02-11.34-29.97l-24.77,42.61c-1.06,10.85-3.29,21.61-6.62,32-1.08,3.21-1.14,6.62-.17,9.86,2.8,9.32,10.54,32.76,21.98,48.91,1.66,2.37,3.19,4.87,4.53,7.42,5.23,9.79,17.49,34.26,18.79,50.9Z" fill="#002346"></path>
      </g>
      <g>
        <rect x="548.16" y="385.04" width="15.08" height="266.37" fill="#e6e7e8"></rect>
        <path d="M563.71,651.87h-16V384.58h16v267.3Zm-15.08-.92h14.16V385.5h-14.16v265.45Z" fill="#002346"></path>
      </g>
      <g>
        <rect x="658.95" y="385" width="15.08" height="266.37" fill="#e6e7e8"></rect>
        <path d="M674.5,651.84h-16V384.54h16v267.3Zm-15.08-.92h14.16V385.46h-14.16v265.45Z" fill="#002346"></path>
      </g>
      <g>
        <rect x="544.08" y="385.04" width="15.08" height="266.37" fill="#fff"></rect>
        <path d="M559.63,651.87h-16V384.58h16v267.3Zm-15.08-.92h14.16V385.5h-14.16v265.45Z" fill="#002346"></path>
      </g>
      <g>
        <rect x="654.86" y="385" width="15.08" height="266.37" fill="#fff"></rect>
        <path d="M670.41,651.84h-16V384.54h16v267.3Zm-15.08-.92h14.16V385.46h-14.16v265.45Z" fill="#002346"></path>
      </g>
      <g>
        <path d="M179.13,273.38s-60.46,7.06-52.52,65.76c0,0-6.62,88.28,78.57,139.48,0,0,67.53,44.58,150.95,3.09,0,0,59.81-25.35,55.84-75.15-.97-11.34-5.18-22.16-12.14-31.16-14.54-19-52.26-65.04-86.78-79.38l-133.92-22.64Z" fill="#fff"></path>
        <path d="M282.92,499.78c-12.85,0-24.23-1.56-33.65-3.62-27.08-5.91-44.18-17.06-44.35-17.17-44.11-26.51-63.19-63.14-71.42-89.19-8.71-27.58-7.44-49.47-7.36-50.66-2.31-17.14,.98-31.58,9.77-42.9,15.43-19.88,42.89-23.3,43.16-23.33h.07s.07,0,.07,0l133.97,22.65,.05,.02c34.55,14.35,72.33,60.39,86.97,79.52,7.03,9.09,11.26,19.95,12.24,31.4,2.07,25.92-13.32,45.11-26.59,56.64-14.34,12.47-29.38,18.91-29.53,18.97-26.91,13.39-52.15,17.66-73.39,17.66Zm-103.8-225.94c-1.48,.19-27.65,3.86-42.48,22.98-8.64,11.13-11.86,25.35-9.57,42.26v.05s0,.05,0,.05c-.02,.22-1.54,22.34,7.33,50.4,8.18,25.89,27.15,62.28,71.02,88.65,.18,.12,17.17,11.19,44.09,17.06,24.84,5.41,63.46,7.38,106.42-13.99,.17-.08,15.09-6.47,29.33-18.85,13.1-11.39,28.29-30.32,26.25-55.85-.96-11.27-5.13-21.96-12.05-30.92-14.59-19.06-52.21-64.93-86.54-79.21l-133.8-22.62Z" fill="#002346"></path>
      </g>
      <g>
        <path d="M173.12,397.05s-29.66-23.27-46.51-57.92c0,0-13.58-54.26,54.82-65.76l132.43,22.64s34.09,8.79,89.66,82.93c0,0,38.28,62.18-46.39,102.79l-45.66-18.98s-50.98-6.17-61.61-14.57c-.02-.03-60.38-26.75-76.73-51.13Z" fill="#e6e7e8"></path>
        <path d="M357.14,482.23l-45.8-19.04c-2.85-.35-51.13-6.33-61.74-14.62l-.14-.06c-6.22-2.81-61.19-28.14-76.69-51.14-1.49-1.19-30.23-24.41-46.58-58.03l-.03-.09c-.05-.21-5.08-21.08,7.01-39.57,9.1-13.91,25.31-22.91,48.18-26.76h.08s.08,0,.08,0l132.43,22.64c.38,.1,34.92,9.69,89.95,83.1,.17,.27,14.22,23.56,6.26,50.63-6.25,21.26-24.02,39.04-52.83,52.85l-.19,.09Zm-106.97-34.39c10.49,8.21,60.84,14.38,61.35,14.44l.12,.03,45.47,18.9c28.45-13.68,46-31.24,52.15-52.19,7.84-26.68-6-49.62-6.14-49.85-54.77-73.06-89.04-82.63-89.38-82.72l-132.32-22.62c-22.55,3.81-38.53,12.66-47.48,26.33-11.61,17.73-7.16,37.72-6.91,38.81,16.61,34.13,46.06,57.48,46.36,57.71l.1,.11c15.3,22.81,70.15,48.07,76.35,50.88,.2,.09,.27,.12,.33,.17Z" fill="#002346"></path>
      </g>
      <g>
        <path d="M313.31,388.35c-39.06,12.37-64,59.81-64,59.81-37.08-17.33-57.58-32.42-67.56-41.06-5.53-4.76-9.93-10.68-12.9-17.34-15.03-33.99-12.28-77.77-12.28-77.77,3.76-46.35,53.19-56.93,53.19-56.93,0,0,21.1-2.13,41.66,.76,13.42,1.93,26.09,7.33,36.78,15.66,3.69,2.88,8.19,6.54,13.14,10.96,7.83,6.99,11.43,17.56,9.5,27.87-.44,2.31-.92,4.47-1.4,6.15" fill="#4800ff"></path>
        <path d="M249.51,448.76l-.4-.19c-36.19-16.92-56.77-31.7-67.66-41.13-5.54-4.77-10.04-10.82-13.02-17.5-14.9-33.7-12.35-77.54-12.32-77.98,3.74-46.16,53.06-57.25,53.56-57.35,.26-.03,21.44-2.11,41.82,.75,13.47,1.94,26.27,7.39,37,15.76,4.72,3.69,9.02,7.28,13.16,10.98,7.9,7.05,11.59,17.9,9.65,28.3-.48,2.51-.95,4.59-1.41,6.19l-.89-.25c.45-1.57,.92-3.62,1.39-6.11,1.89-10.09-1.7-20.6-9.35-27.44-4.13-3.69-8.42-7.27-13.12-10.95-10.61-8.27-23.25-13.66-36.56-15.57-20.26-2.84-41.33-.77-41.54-.75-.44,.1-49.09,11.05-52.78,56.51-.03,.43-2.56,44.05,12.24,77.54,2.92,6.56,7.34,12.5,12.78,17.18,10.81,9.35,31.21,24.01,67.06,40.8,2.51-4.57,27.14-47.96,64.06-59.65l.28,.88c-38.43,12.17-63.48,59.11-63.73,59.58l-.2,.39Z" fill="#002346"></path>
      </g>
      <g>
        <rect x="209.4" y="385.04" width="15.08" height="266.37" fill="#e6e7e8"></rect>
        <path d="M224.95,651.87h-16V384.58h16v267.3Zm-15.08-.92h14.16V385.5h-14.16v265.45Z" fill="#002346"></path>
      </g>
      <g>
        <path d="M392.74,490.78c8.58-6.76,24.54-22.86,37.53-56.09,0,0,3.61,4.61,4.28,6.11,3.51-2.7,6.23-6.28,7.89-10.34,.64-1.56-.23-3.34-1.85-3.82l-130.14-38.72s-37.78,11.47-61.13,60.24c0,0,12.36,9.05,61.36,14.57l69.89,29.66c4.05,1.72,8.73,1.12,12.19-1.6Z" fill="#000000"></path>
        <path d="M385.3,493.81c-1.66,0-3.34-.33-4.93-1l-69.83-29.64c-48.5-5.47-61-14.27-61.51-14.65l-.31-.23,.17-.34c23.18-48.39,61.04-60.37,61.42-60.48l.13-.04,.13,.04,130.14,38.72c.91,.27,1.66,.91,2.07,1.77,.4,.84,.43,1.82,.08,2.67-1.7,4.15-4.48,7.79-8.04,10.53l-.47,.36-.24-.54c-.49-1.11-2.72-4.06-3.72-5.37-13.02,32.94-28.98,48.92-37.38,55.53h0c-2.23,1.76-4.96,2.67-7.72,2.67Zm-135.4-45.83c2.23,1.38,16.68,9.3,60.82,14.28l.13,.03,69.89,29.66c3.91,1.66,8.41,1.07,11.72-1.54h0c8.38-6.6,24.39-22.65,37.39-55.9l.29-.75,.5,.64c.13,.17,3.01,3.85,4.06,5.69,3.22-2.6,5.74-5.98,7.32-9.81,.26-.63,.24-1.31-.06-1.93-.3-.62-.84-1.09-1.5-1.28l-130.01-38.68c-2.44,.8-38.22,13.3-60.55,59.59Z" fill="#002346"></path>
      </g>
      <g>
        <path d="M446.61,623.83s-9.05-7.5-9.27,1.11c0,0-1.11,11.69,0,18.76l63.58,1.1s2.59-2.14,3.69-2.35l-57.99-18.61Z" fill="#4800ff"></path>
        <path d="M501.08,645.25h-.17s-63.96-1.1-63.96-1.1l-.06-.38c-1.1-7.04-.01-18.76,0-18.87,.06-2.25,.73-3.7,2-4.28,2.76-1.26,7.3,2.28,7.95,2.8l59.62,19.14-1.77,.34c-.71,.14-2.51,1.45-3.48,2.25l-.13,.11Zm-63.34-2.01l63.02,1.09c.41-.33,1.54-1.23,2.56-1.82l-56.93-18.27-.07-.06c-1.29-1.07-5.06-3.63-7.05-2.73-.92,.42-1.42,1.6-1.47,3.5-.01,.15-1.05,11.33-.06,18.29Z" fill="#002346"></path>
      </g>
      <g>
        <path d="M455.43,615.22c1.37-3.47,3.96-6.32,7.28-8.02,0,0,1.13-10.3,5.1-7.44l10.14,5.96s19.42-20.97,23.39-15.66c0,0,4.41,6.4-3.75,18.1,0,0,22.61,17.29,27.64,17.95,0,0-41.36-6.03-48.65-7.57,.04,0-16.51-5.53-21.15-3.32Z" fill="#4800ff"></path>
        <path d="M525.17,626.57s-.05,0-.08-.01c-1.95-.28-41.53-6.07-48.61-7.57l-.39-.08v-.05c-2.66-.91-16.52-5.1-20.46-3.22l-1.06,.5,.43-1.09c1.38-3.5,3.96-6.38,7.28-8.14,.17-1.38,1-6.88,3.37-7.93,.76-.34,1.58-.2,2.43,.41l9.78,5.75c2.09-2.23,15.63-16.4,21.62-16.4,.06,0,.13,0,.19,0,.87,.05,1.56,.4,2.04,1.04,.2,.28,4.42,6.68-3.49,18.27,2.86,2.17,22.34,16.84,27,17.58,.04,0,.07,.01,.08,.01l-.13,.91Zm-48.49-8.48c5.88,1.25,34.42,5.48,44.82,7.01-8-4.22-23.41-15.98-24.19-16.57l-.35-.27,.25-.36c7.86-11.25,3.79-17.51,3.75-17.57-.3-.4-.75-.62-1.34-.66-5.83-.26-21.18,16.21-21.33,16.37l-.25,.27-10.45-6.15c-.61-.44-1.1-.54-1.55-.34-1.75,.78-2.65,5.63-2.85,7.43l-.03,.25-.22,.11c-2.92,1.49-5.25,3.9-6.66,6.85,5.48-1.24,18.65,3.02,20.41,3.64v-.02Z" fill="#002346"></path>
      </g>
      <g>
        <path d="M455.43,615.22s-9.29,4.34-3.76,13.76c0,0,.92,3.95,14.36,3.81,0,0,16.81,3.91,25.95,5.64,0,0,17.67,7.6,31.43,5.26,0,0,12.54,2.19,17.12-5.37,1.49-2.4,1.02-5.52-1.11-7.37-2.31-2.05-6.66-4.34-14.69-4.93l-48.12-7.5s-15.66-5.51-21.18-3.3Z" fill="#fff"></path>
        <path d="M517.8,644.6c-12.13,0-25.07-5.34-25.96-5.72-8.8-1.67-24.81-5.38-25.86-5.62-12.8,.09-14.51-3.4-14.73-4.09-1.73-2.98-2.21-5.78-1.42-8.33,1.26-4.05,5.24-5.95,5.41-6.03h.02c5.61-2.26,20.86,3.05,21.51,3.28l48.03,7.48c8.31,.61,12.7,3.08,14.92,5.04,2.3,2.01,2.8,5.36,1.19,7.96-4.54,7.51-16.32,5.79-17.51,5.6-1.81,.3-3.7,.44-5.6,.44Zm-51.72-12.26h.05c.17,.05,16.9,3.94,25.93,5.65l.1,.03c.18,.07,17.71,7.52,31.17,5.23h.08s.08,0,.08,0c.12,.02,12.29,2.05,16.65-5.16,1.38-2.22,.95-5.07-1.01-6.79-2.11-1.87-6.33-4.22-14.42-4.82l-48.15-7.5c-.24-.07-15.62-5.44-20.93-3.33-.22,.11-3.81,1.91-4.91,5.47-.71,2.3-.25,4.87,1.37,7.63l.05,.13s1.17,3.63,13.9,3.46h.05Z" fill="#002346"></path>
      </g>
      <g>
        <path d="M346.12,337.96l2.05,3.39c.97-2.57,3.43-4.27,6.18-4.27l167.28-.09,25.93-18.24c0,.68,.23,1.33,.67,1.84l-11.48,8.38,2.21,2.54,11.14-8.29c1.55,1.76,5.19,1.43,5.19,1.43l9.38,13.38h8.5l-11.9-17.21c1.76-1.98,.77-5.83,.77-5.83l9.88-6.96c.71-.5,.91-1.47,.45-2.21h0c-.47-.77-1.48-1.01-2.26-.54-.05,.03-.09,.06-.14,.1l-9.37,7.17c-.5-.67-1.12-1.24-1.84-1.68l31.44-22.13c.37-.26,.38-.79,.03-1.07l-4.6-3.71h-214.93l-82.1,58.49,1.55,3.55,55.97-8.04Z" fill="#fff"></path>
        <path d="M289.86,346.5l-1.84-4.21,82.52-58.79h215.24l4.73,3.81c.28,.22,.43,.56,.42,.92s-.19,.68-.48,.89l-30.89,21.74c.41,.31,.78,.65,1.11,1.04l9.01-6.89c.06-.04,.12-.09,.18-.12,.47-.29,1.04-.38,1.58-.25,.55,.13,1.01,.47,1.3,.94,.59,.95,.34,2.19-.58,2.83l-9.63,6.78c.19,.95,.62,3.81-.72,5.65l12.21,17.65h-9.61l-9.37-13.36c-.85,.04-3.48,.04-5-1.3l-11.16,8.31-2.82-3.24,11.51-8.41c-.18-.29-.31-.6-.39-.92l-25.42,17.88h-.15l-167.28,.09h-.02c-2.54,0-4.84,1.59-5.74,3.97l-.33,.89-2.39-3.94-56.02,8.05Zm-.69-3.89l1.26,2.88,55.93-8.04,1.76,2.9c1.21-2.27,3.61-3.74,6.22-3.74h.02l167.13-.09,26.55-18.68v.9c-.02,.56,.18,1.11,.55,1.54l.33,.38-11.48,8.38,1.6,1.84,11.14-8.29,.28,.32c1.37,1.56,4.77,1.28,4.8,1.27l.27-.02,9.4,13.4h7.38l-11.61-16.79,.24-.27c1.58-1.78,.68-5.38,.67-5.41l-.08-.31,10.14-7.14c.52-.36,.66-1.06,.33-1.59-.17-.27-.43-.46-.73-.53-.31-.07-.62-.02-.89,.14-.04,.02-.07,.05-.1,.07l-9.74,7.45-.28-.38c-.47-.63-1.04-1.15-1.71-1.56l-.61-.37,32.01-22.53c.07-.05,.09-.13,.09-.17,0-.04,0-.11-.08-.17l-4.48-3.6h-214.62l-81.67,58.19Z" fill="#002346"></path>
      </g>
      <g>
        <path d="M198.82,288.23s-.33-.23-.93-.59c-16.06-9.55-36.75,0-40.11,18.38-.17,.93-.33,1.9-.48,2.91-2.15,14.39,2.6,29.04,13.09,39.12,1.47,1.41,2.85,2.55,4.02,3.18h24.44s-4.81-24.27,30.41-34.14c-3.53-.37-6.75-2.21-8.86-5.06,0,0-10.75-15.57-21.56-23.81Z" fill="#4800ff"></path>
        <path d="M198.84,351.69h-24.55l-.1-.06c-1.12-.61-2.51-1.71-4.12-3.26-10.47-10.08-15.42-24.85-13.22-39.52,.15-1.01,.31-1.99,.48-2.92,1.61-8.83,7.46-16.32,15.64-20.04,8.24-3.75,17.41-3.26,25.16,1.35,.62,.37,.96,.6,.96,.6h.02c10.74,8.2,21.55,23.77,21.66,23.93,2.02,2.73,5.14,4.51,8.53,4.86l2.4,.25-2.32,.65c-34.37,9.63-30.13,33.37-30.08,33.6l.11,.55h-.56Zm-24.32-.92h23.79c-.43-3.63-1.42-24.24,28.95-33.57-2.88-.75-5.45-2.47-7.24-4.89-.12-.17-10.84-15.61-21.46-23.71-.05-.04-.36-.25-.9-.56-7.48-4.45-16.34-4.93-24.3-1.3-8.03,3.65-13.54,10.71-15.12,19.37-.17,.92-.33,1.89-.48,2.89-2.15,14.38,2.69,28.85,12.95,38.72,1.5,1.44,2.79,2.47,3.82,3.05Z" fill="#002346"></path>
      </g>
      <g>
        <path d="M240.47,351.23h-41.66s-4.41-25.07,30.41-34.14l39.76,.92s30.04-2.81,41.95-6.2c2.1-.6,4-1.73,5.54-3.29,3.16-3.19,9.67-9.61,14.45-13.29,1.05-.81,1.84-1.89,2.31-3.13l2.97-7.82c.56-1.47,1.59-2.72,2.92-3.55,3.02-1.88,8.64-5.63,11.56-9.12,.35-.41,.97-.42,1.34-.03,.91,.96,2.1,2.94,.75,5.95,0,0-1.54,3.2-4.08,3.42,3.05-.24,5.91-1.57,8.06-3.75,.76-.45,1.68-.57,2.53-.33l13.89,2.04c.47,.07,.79,.5,.73,.97-.02,.11-.05,.21-.11,.31-.92,1.52-3.08,3.94-7.84,3l-5.22,.57c-1.02,.11-2,.48-2.85,1.06l-2.27,2.45,2.43-.54c.28-.09,.57-.15,.87-.18l9.34-.88-75.12,53.52s-34.87,13.51-52.67,12.01Z" fill="#f2b3c1"></path>
        <path d="M243.36,351.81c-1.01,0-1.98-.04-2.9-.11h-42.02l-.07-.38c-.04-.26-4.08-25.59,30.74-34.66l.06-.02h.06s39.76,.92,39.76,.92c.25-.03,30.08-2.84,41.81-6.18,2.01-.57,3.85-1.67,5.34-3.17,3.38-3.41,9.75-9.68,14.5-13.33,.97-.75,1.71-1.76,2.16-2.93l2.97-7.82c.59-1.56,1.7-2.9,3.11-3.78,3.04-1.9,8.58-5.59,11.45-9.02,.25-.29,.61-.47,.99-.48,.38-.02,.77,.15,1.04,.43,.95,1,2.31,3.18,.84,6.45-.04,.09-.57,1.18-1.53,2.15,1.79-.61,3.42-1.63,4.76-2.99l.09-.07c.87-.52,1.92-.66,2.9-.38l13.83,2.02c.35,.05,.66,.23,.87,.51,.21,.28,.3,.63,.25,.98-.02,.17-.08,.33-.17,.48-1.2,1.98-3.6,4.13-8.26,3.24l-5.15,.56c-.93,.1-1.82,.43-2.59,.95l-1.24,1.33,.99-.22c.27-.09,.59-.15,.92-.18l11.05-1.03-76.62,54.57c-.33,.13-31.62,12.16-49.95,12.16Zm-44.13-1.03h41.29c.91,.08,1.87,.11,2.87,.11,17.78,0,48.06-11.51,49.54-12.08l73.68-52.5-7.64,.72c-.26,.02-.52,.08-.77,.16l-3.91,.86,3.35-3.6c.91-.62,1.96-1.02,3.06-1.14l5.29-.58h.07c4.19,.84,6.31-1.05,7.36-2.78,.02-.04,.04-.09,.05-.14,.02-.1-.01-.21-.07-.29s-.16-.14-.26-.15l-13.89-2.04c-.77-.22-1.54-.12-2.18,.24-2.22,2.23-5.17,3.6-8.31,3.84l-.08-.92c2.26-.2,3.69-3.13,3.71-3.16,1.19-2.63,.29-4.41-.67-5.43-.09-.1-.22-.15-.34-.14-.12,0-.23,.06-.31,.15-2.96,3.53-8.58,7.29-11.67,9.21-1.25,.78-2.22,1.96-2.74,3.33l-2.97,7.82c-.5,1.33-1.35,2.48-2.46,3.33-4.7,3.62-11.04,9.85-14.41,13.25-1.6,1.61-3.58,2.79-5.74,3.4-11.81,3.36-41.73,6.19-42.03,6.21l-39.75-.92c-31.58,8.25-30.4,30.06-30.06,33.21Z" fill="#002346"></path>
      </g>
      <g>
        <rect x="205.32" y="385.04" width="15.08" height="266.37" fill="#fff"></rect>
        <path d="M220.87,651.87h-16V384.58h16v267.3Zm-15.08-.92h14.16V385.5h-14.16v265.45Z" fill="#002346"></path>
      </g>
      <g>
        <path d="M260.38,259.8c-3.23,2.22-7.24,2.99-11.06,2.12-2.99-.58-5.83-1.76-8.35-3.47l-.67,8.55c-.21,2.89-1.12,5.69-2.66,8.15-2.76,4.26-8.14,8.38-17.99,2.32,0-.05-7.82-3.72-11.28-11.19-1.79-3.98-1.68-8.56,.3-12.45,1.38-2.76,5.67-10.32,9.2-22.29l14.74-13.82,13.82,17.51,13.94,24.58Z" fill="#f2b3c1"></path>
        <path d="M228.7,280.99c-2.57,0-5.64-.89-9.29-3.13l-.12-.06c-2.43-1.29-8.41-4.99-11.34-11.33-1.86-4.13-1.74-8.82,.31-12.85,.17-.33,.38-.74,.63-1.22,1.77-3.41,5.45-10.51,8.54-20.99l.04-.12,.09-.09,15.11-14.16,14.13,17.9,14.18,25.01-.35,.24c-3.32,2.29-7.49,3.09-11.42,2.19-2.8-.54-5.44-1.59-7.85-3.11l-.61,7.77c-.21,2.95-1.15,5.84-2.73,8.35-1.88,2.89-4.83,5.6-9.33,5.6Zm-8.81-3.92c9.42,5.79,14.64,2.01,17.36-2.18,1.49-2.38,2.39-5.12,2.59-7.93l.74-9.35,.66,.45c2.48,1.69,5.23,2.83,8.18,3.4,3.56,.81,7.31,.15,10.36-1.81l-13.73-24.21-13.47-17.05-14.29,13.39c-3.11,10.49-6.79,17.6-8.57,21.03-.25,.47-.46,.88-.62,1.21-1.93,3.79-2.04,8.18-.3,12.05,2.81,6.08,8.58,9.65,10.93,10.9,.06,.03,.12,.06,.17,.09h0Z" fill="#002346"></path>
      </g>
      <g>
        <rect x="226.17" y="176.71" width="54.36" height="87.07" rx="27.18" ry="27.18" fill="#f2b3c1"></rect>
        <path d="M253.35,264.25c-15.24,0-27.64-12.4-27.64-27.64v-32.71c0-15.24,12.4-27.64,27.64-27.64s27.64,12.4,27.64,27.64v32.71c0,15.24-12.4,27.64-27.64,27.64Zm0-87.07c-14.73,0-26.72,11.99-26.72,26.72v32.71c0,14.73,11.99,26.72,26.72,26.72s26.72-11.99,26.72-26.72v-32.71c0-14.73-11.99-26.72-26.72-26.72Z" fill="#002346"></path>
      </g>
      <g>
        <path d="M216.67,235.34s-19.54-19.02-5.42-52.73c0,0,0,0-.01-.03-1.62-2.89,1.98-5.93,4.61-3.73,.01,0,0,0,0,0-.04-.07-.08-.15-.11-.22-1.46-2.98,1.87-5.83,4.75-4.19,.42,.24,.89,.38,1.42,.38,0,0,13.54-10.08,30.26-7.78,0,0,15.48-.92,21.96-6,3.91-3.07,9.68-1.95,11.74,2.57,3.09,6.78,4.38,25.94-4.88,41.66,.28-1.91-.35-5.72-1.84-10.14-1.47-4.33-3.94-7.14-5.31-8.5-3.9,1.28-7.96,2.81-12.19,4.49-6.83,2.72-15.12,6.4-20.98,10.21,0,0-4.69,17.79-8.96,11.06,0,0-3.55-7.45-10.7-4.21-2.05,.92-3.38,2.93-3.43,5.18,0,2.88,1.58,7.37,8.15,13.63l-9.07,8.35Z" fill="#002346"></path>
        <path d="M216.66,235.97l-.31-.3c-.2-.19-19.53-19.55-5.61-53.04-.83-1.68-.16-3.29,.9-4.17,.85-.7,2.1-1.07,3.35-.63-.23-1.2,.15-2.4,1.09-3.29,1.27-1.19,3.09-1.39,4.64-.51,.33,.19,.69,.3,1.05,.32,1.46-1.03,14.63-9.95,30.46-7.77,.06-.01,15.32-.97,21.61-5.91,2.07-1.62,4.69-2.2,7.2-1.59,2.34,.57,4.25,2.15,5.25,4.34,2.93,6.43,4.58,25.99-4.9,42.08l-1.19,2.02,.34-2.32c.28-1.93-.43-5.82-1.82-9.92-1.28-3.79-3.39-6.48-5-8.12-3.5,1.16-7.29,2.56-11.89,4.39-6.16,2.46-14.74,6.19-20.75,10.07-.5,1.87-3.44,12.18-6.99,12.72-1.01,.16-1.93-.42-2.75-1.71-.16-.33-3.47-7.05-10.12-4.04-1.88,.84-3.12,2.71-3.16,4.77,0,2.57,1.39,6.98,8,13.28l.36,.34-9.75,8.98Zm-2.78-57.41c-.65,0-1.23,.27-1.65,.61-.75,.62-1.35,1.83-.59,3.19l.11,.2-.07,.23c-12.86,30.7,2.62,49.3,5.02,51.91l8.37-7.71c-5.26-5.11-7.93-9.69-7.93-13.62,.05-2.42,1.5-4.61,3.7-5.6,7.48-3.39,11.26,4.35,11.3,4.43,.58,.91,1.19,1.33,1.8,1.25,2.62-.41,5.43-8.96,6.29-12.22l.05-.17,.15-.1c6.09-3.96,14.82-7.76,21.06-10.25,4.74-1.89,8.62-3.32,12.21-4.5l.27-.09,.2,.2c2.44,2.42,4.32,5.42,5.42,8.68,1.09,3.22,1.77,6.26,1.9,8.46,8.3-15.47,6.73-33.57,3.96-39.64-.88-1.92-2.57-3.32-4.63-3.82-2.23-.54-4.56-.03-6.41,1.42-6.52,5.11-21.58,6.06-22.21,6.1-16.42-2.25-29.88,7.59-30.01,7.69l-.12,.09h-.15c-.58,0-1.13-.15-1.65-.45-1.44-.82-2.81-.31-3.55,.38-.7,.66-1.22,1.85-.55,3.21l.11,.22,.23,.32-.67,.48-.28-.22c-.56-.47-1.14-.65-1.67-.65Z" fill="#0d2445"></path>
      </g>
      <g>
        <rect x="320.52" y="385.04" width="15.08" height="266.37" fill="#e6e7e8"></rect>
        <path d="M336.06,651.87h-16V384.58h16v267.3Zm-15.08-.92h14.16V385.5h-14.16v265.45Z" fill="#002346"></path>
      </g>
      <g>
        <rect x="316.43" y="385.04" width="15.08" height="266.37" fill="#fff"></rect>
        <path d="M331.98,651.87h-16V384.58h16v267.3Zm-15.08-.92h14.16V385.5h-14.16v265.45Z" fill="#002346"></path>
      </g>
      <g>
        <polygon points="181.6 386.37 181.6 374.65 344.6 374.65 687.82 374.65 687.82 386.37 344.87 386.89 181.6 386.37" fill="#fff"></polygon>
        <path d="M344.87,387.35l-163.73-.52v-12.65h507.14v12.65h-.46s-342.95,.52-342.95,.52Zm-162.81-1.44l162.81,.51,342.49-.52v-10.81H182.06v10.81Z" fill="#002346"></path>
      </g>
      <g>
        <polygon points="344.87 386.89 344.87 374.65 687.82 374.65 687.82 386.37 344.87 386.89" fill="#e6e7e8"></polygon>
        <path d="M344.41,387.35v-13.17h343.87v12.65h-.46s-343.41,.52-343.41,.52Zm.92-12.25v11.32l342.03-.51v-10.81H345.33Z" fill="#002346"></path>
      </g>
      <g>
        <ellipse cx="173.51" cy="640.2" rx="10.93" ry="11.22" fill="#e6e7e8"></ellipse>
        <path d="M173.51,651.88c-6.28,0-11.39-5.24-11.39-11.68s5.11-11.68,11.39-11.68,11.39,5.24,11.39,11.68-5.11,11.68-11.39,11.68Zm0-22.45c-5.77,0-10.47,4.83-10.47,10.76s4.7,10.76,10.47,10.76,10.47-4.83,10.47-10.76-4.7-10.76-10.47-10.76Z" fill="#002346"></path>
      </g>
      <g>
        <path d="M292.22,345.71l79.98-57.49h218.04c.22,0,.3,.28,.13,.4l-68.72,48.36-164.93,.09s-6.78-.81-8.55,4.27l-2.05-3.39-53.89,7.76Z" fill="#e6e7e8"></path>
        <path d="M290.42,346.44l81.63-58.67h218.19c.3,0,.56,.19,.65,.48s-.01,.59-.26,.76l-68.84,48.44h-.15l-164.93,.09c-.12-.01-6.49-.71-8.12,3.96l-.32,.92-2.4-3.97-55.45,7.98Zm81.92-57.75l-78.33,56.3,52.33-7.53,1.75,2.89c2.28-4.42,8.61-3.73,8.68-3.72l164.73-.1,67.98-47.84h-217.13Z" fill="#002346"></path>
      </g>
      <g>
        <path d="M354.62,305.36s-.01-.02-.02-.02c-.55-.85-1.69-1.1-2.55-.55-.06,.04-.12,.08-.17,.12l-9.44,7.3c.07-.6-.3-1.77-1.6-1.28l-11.28,8.11s-1.28,1.4,.7,2.06l-10.26,7.33c-.77,.55-.95,1.62-.4,2.39,0,0,0,0,0,0,.56,.77,1.63,.94,2.39,.38,0,0,0,0,0,0l10.43-7.66c1.58,.9,3.36,1.27,5.12,1.13l11.51,18.14,5.3-5.73-10.57-16.27c.57-1.24,.9-2.98,.5-5.37l9.81-7.46c.87-.58,1.1-1.75,.52-2.62Z" fill="#fff"></path>
        <path d="M348.99,343.56l-11.68-18.41c-1.7,.09-3.36-.28-4.84-1.06l-10.19,7.48c-.47,.34-1.05,.49-1.62,.39-.57-.09-1.08-.4-1.42-.87-.34-.48-.48-1.06-.38-1.63,.1-.57,.41-1.07,.88-1.41l9.63-6.87c-.33-.23-.54-.51-.63-.85-.21-.81,.41-1.52,.49-1.6l.07-.06,11.38-8.16c.79-.3,1.31-.09,1.61,.15,.24,.19,.4,.44,.5,.72l8.82-6.81c.06-.05,.13-.1,.2-.15,.51-.33,1.13-.44,1.73-.32,.6,.13,1.12,.49,1.45,1l-.37,.28,.38-.26c.35,.52,.47,1.15,.35,1.76-.12,.62-.48,1.15-1,1.49l-9.57,7.28c.29,1.95,.13,3.67-.48,5.13l10.63,16.36-5.95,6.43Zm-11.2-19.37l11.33,17.87,4.65-5.03-10.51-16.18,.11-.23c.64-1.4,.8-3.11,.46-5.1l-.05-.27,10.03-7.63c.34-.23,.56-.55,.63-.92,.07-.37,0-.75-.21-1.07l.38-.26-.38,.25c-.22-.34-.53-.55-.89-.63-.36-.08-.73,0-1.04,.19-.05,.03-.09,.06-.13,.1l-10.33,7.98,.14-1.1c.03-.25-.06-.62-.27-.78-.15-.12-.37-.13-.66-.03l-11.18,8.04c-.11,.13-.32,.46-.25,.72,.06,.22,.33,.42,.78,.57l.86,.29-10.99,7.85c-.27,.19-.45,.48-.51,.81-.06,.33,.02,.66,.22,.93,.2,.27,.49,.45,.82,.5s.66-.03,.93-.22l10.67-7.83,.26,.15c1.46,.84,3.15,1.21,4.85,1.07l.28-.02Z" fill="#002346"></path>
      </g>
      <g>
        <path d="M354.36,337.08h218.47c3.91,0,7.08,3.17,7.08,7.08h0c0,3.91-3.17,7.08-7.08,7.08h-218.47v-14.15Z" fill="#fff"></path>
        <path d="M572.83,351.69h-218.93v-15.07h218.93c4.16,0,7.54,3.38,7.54,7.54s-3.38,7.54-7.54,7.54Zm-218.01-.92h218.01c3.65,0,6.62-2.97,6.62-6.62s-2.97-6.62-6.62-6.62h-218.01v13.23Z" fill="#002346"></path>
      </g>
      <g>
        <path d="M282.64,347.08s-3.97-.75-3.75,4.16h79.44s5.3-1.94,3.75-8.78c0,0-1.1-6.26-7.72-5.37-2.72,.09-5.14,1.75-6.18,4.27l-2.05-3.39-63.48,9.12Z" fill="#fff"></path>
        <path d="M358.33,351.69h-79.88l-.02-.44c-.08-1.76,.35-3.05,1.26-3.85,1.12-.97,2.59-.84,2.95-.79l63.72-9.16,1.78,2.93c1.26-2.23,3.61-3.68,6.21-3.77,6.93-.93,8.18,5.69,8.19,5.75,1.61,7.13-3.99,9.27-4.05,9.29l-.16,.03Zm-78.99-.92h78.9c.63-.26,4.75-2.23,3.39-8.22-.05-.26-1.12-5.84-7.21-5.02-2.58,.08-4.84,1.65-5.82,3.99l-.35,.84-2.37-3.91-63.26,9.09h-.08s-1.35-.25-2.27,.56c-.62,.54-.94,1.44-.95,2.67Z" fill="#002346"></path>
      </g>
      <g>
        <polygon points="169.51 351.23 169.51 374.65 357.57 374.65 703.7 374.65 703.7 351.23 355.88 351.23 169.51 351.23" fill="#fff"></polygon>
        <path d="M704.16,375.11H169.05v-24.33H704.16v24.33Zm-534.19-.92H703.23v-22.49H169.97v22.49Z" fill="#002346"></path>
      </g>
      <g>
        <rect x="356.37" y="351.23" width="347.33" height="23.41" fill="#e6e7e8"></rect>
        <path d="M704.16,375.11H355.91v-24.33h348.25v24.33Zm-347.33-.92h346.41v-22.49H356.83v22.49Z" fill="#002346"></path>
      </g>
      <g>
        <path d="M354.55,279.07c-1.36,.98-2.98,1.55-4.64,1.66l-38.04-19.87c-.14-.06-.26-.16-.37-.27-.06-.05-.11-.1-.16-.16l-3.23-4.04c-.08-.1,0-.26,.14-.24l5.35,.77,.34,.05c.19,.03,.38,.09,.55,.18l40.05,21.91Z" fill="#000000"></path>
        <path d="M349.81,281.2l-.11-.06-38.03-19.86c-.16-.07-.32-.19-.48-.35-.05-.04-.12-.11-.18-.19l-3.24-4.05c-.16-.19-.18-.46-.05-.68,.13-.22,.37-.33,.62-.31l5.69,.82c.24,.03,.48,.11,.71,.23l40.7,22.27-.6,.43c-1.43,1.02-3.12,1.63-4.88,1.74h-.13Zm-40.84-24.46l2.74,3.43s.06,.06,.09,.09c.11,.11,.19,.17,.27,.2l37.94,19.81c1.3-.11,2.54-.5,3.65-1.16l-39.38-21.54c-.13-.07-.27-.11-.4-.13l-4.91-.71Zm-.78-.11h0Zm.28-.51h0s0,0,0,0Z" fill="#002346"></path>
      </g>
      <g>
        <path d="M357.56,285.11l2.87,1.34,7.27-.69-4.16-2.27s-4.5,.15-5.97,1.62Z" fill="#000000"></path>
        <path d="M360.35,286.92l-3.58-1.67,.47-.47c1.58-1.59,6.09-1.75,6.28-1.76h.13s5.6,3.04,5.6,3.04l-8.9,.85Zm-1.88-1.89l2.05,.95,5.64-.54-2.73-1.49c-1.11,.05-3.6,.32-4.96,1.07Z" fill="#002346"></path>
      </g>
      <g>
        <ellipse cx="225.25" cy="216.79" rx="7.37" ry="9.21" transform="translate(-68.32 109.3) rotate(-23.79)" fill="#f2b3c1"></ellipse>
        <path d="M226.5,226.2c-1.19,0-2.42-.31-3.61-.93-2.07-1.08-3.78-2.97-4.81-5.31-1.03-2.35-1.28-4.88-.68-7.14,.61-2.29,2.01-4.02,3.94-4.88,1.93-.85,4.15-.72,6.26,.38,2.07,1.08,3.78,2.97,4.81,5.31h0c1.04,2.35,1.28,4.88,.68,7.14-.61,2.29-2.01,4.02-3.94,4.88-.84,.37-1.73,.55-2.65,.55Zm-2.51-17.89c-.79,0-1.56,.16-2.27,.47-1.67,.74-2.89,2.25-3.42,4.27-.55,2.05-.32,4.37,.63,6.53,.95,2.16,2.51,3.89,4.4,4.87,1.85,.96,3.79,1.09,5.46,.35,1.67-.74,2.89-2.25,3.42-4.27,.55-2.05,.32-4.37-.63-6.53h0c-.95-2.16-2.51-3.89-4.4-4.87-1.05-.55-2.14-.83-3.18-.83Z" fill="#002346"></path>
      </g>
      <g>
        <path d="M313.61,256.93l-2.1,3.67c-.06-.05-.11-.1-.16-.16l-3.23-4.04c-.08-.1,0-.26,.14-.24l5.35,.77Z" fill="#fff"></path>
        <path d="M311.63,261.31l-.42-.36c-.08-.06-.15-.14-.21-.21l-3.24-4.05c-.16-.19-.18-.46-.05-.68,.13-.22,.37-.33,.62-.31l6.02,.87-2.71,4.74Zm-2.66-4.58l2.46,3.08,1.44-2.51-3.9-.56Zm-.78-.11h0Zm.28-.51h0s0,0,0,0Z" fill="#002346"></path>
      </g>
      <path d="M430.27,435.15s-.09,0-.13-.02l-80.18-23.02c-.24-.07-.39-.33-.32-.57,.07-.25,.33-.39,.57-.32l80.18,23.02c.24,.07,.39,.33,.32,.57-.06,.2-.24,.33-.44,.33Z" fill="#0d2445"></path>
      <g>
        <g>
          <path d="M692.26,566.56s18.89-15.89,40.34-.43c0,0,13.47,10.47,4.49,19.45,0,0-9.48,6.48-23.44-4.49,0,0-14.84-12.12-21.39-14.54Z" fill="#7cd295"></path>
          <path d="M729.51,587.95c-4.15,0-9.72-1.39-16.17-6.46-.16-.13-14.86-12.1-21.25-14.46l-.81-.3,.66-.56c.19-.16,19.44-15.96,40.96-.45,.31,.24,7.35,5.79,7.77,12.43,.18,2.85-.9,5.47-3.21,7.78-.09,.07-3.03,2.01-7.94,2.01Zm-36.24-21.52c6.86,3.01,20.12,13.8,20.7,14.28,13.51,10.62,22.75,4.53,22.84,4.46,2.03-2.04,3.01-4.39,2.85-6.95-.38-6.19-7.29-11.64-7.36-11.69-18.61-13.42-35.48-2.68-39.03-.1Z" fill="#002346"></path>
        </g>
        <g>
          <path d="M671.38,558.79s20.83-29.07,8.36-57.5c0,0-13.97-27.93,2.49-36.41,0,0,20.45-8.48,31.42,21.45,0,0,14.71,43.68-42.27,72.47Z" fill="#7cd295"></path>
          <path d="M669.77,560.16l1.19-1.67c.21-.29,20.51-29.17,8.3-57.01-.13-.26-13.98-28.45,2.72-37.06,.33-.14,7.24-2.93,15.29,.6,7.19,3.15,12.85,10.26,16.84,21.12,.04,.12,3.69,11.24,.25,25.73-3.17,13.35-13.16,32.4-42.77,47.36l-1.83,.92Zm19.07-95.89c-3.79,0-6.38,1.05-6.43,1.06-15.79,8.14-2.37,35.45-2.24,35.72,10.78,24.58-3.25,49.87-7.34,56.41,27.92-14.63,37.47-32.9,40.54-45.77,3.39-14.22-.17-25.11-.21-25.22-3.88-10.58-9.36-17.49-16.29-20.53-2.92-1.28-5.7-1.68-8.04-1.68Z" fill="#002346"></path>
        </g>
        <g>
          <path d="M618.43,475c-5.17,2.55-8.57,7.79-8.48,13.56,.11,7.2,4.52,17.12,25.39,22.7,0,0,24.47,6.06,27.2,24.23,0,0,6.75-22.51-4.76-44.01-4.41-8.24-11.75-14.6-20.69-17.32-5.61-1.7-12.32-2.28-18.65,.84Z" fill="#7cd295"></path>
          <path d="M662.37,537.79l-.33-2.22c-2.65-17.62-26.58-23.76-26.82-23.82-21.1-5.65-25.66-15.72-25.77-23.18-.09-5.85,3.36-11.35,8.76-14.02h0c5.53-2.73,11.93-3.02,19.02-.87,8.92,2.7,16.37,8.94,20.99,17.56,11.48,21.44,4.87,44.16,4.8,44.39l-.65,2.15Zm-34.09-64.52c-3.46,0-6.67,.73-9.63,2.18h0c-5.06,2.5-8.28,7.64-8.2,13.1,.1,7.11,4.53,16.74,25.02,22.22,.23,.06,22.81,5.84,27.11,22.41,1.31-6.12,3.99-24.22-5.25-41.47-4.49-8.38-11.73-14.45-20.39-17.07-3.02-.92-5.91-1.38-8.66-1.38Z" fill="#002346"></path>
        </g>
        <g>
          <path d="M617.27,549.79c1.26,2.39,3.58,5.06,7.59,7.86,0,0,15.75,9.13,19.85,22.02,0,0-.39-21.03-12.37-36.99,0,0-1.04-1.96-3.17-3.5-7.05-5.08-15.94,2.91-11.9,10.6Z" fill="#7cd295"></path>
          <path d="M645.28,583.12l-1.05-3.3c-3.99-12.55-19.46-21.65-19.62-21.74-3.74-2.61-6.34-5.32-7.78-8.06h0c-2.26-4.29-.62-8.51,2-10.79,3.1-2.7,7.28-2.88,10.64-.46,2.2,1.59,3.28,3.59,3.33,3.67,11.89,15.84,12.42,37,12.42,37.21l.06,3.46Zm-20.82-45.03c-1.98,0-3.76,.84-4.98,1.9-2.15,1.87-3.9,5.49-1.77,9.56h0c1.37,2.6,3.87,5.19,7.43,7.69,.56,.32,13.53,7.95,18.83,19.21-.64-6.49-3.07-21.49-12.04-33.46-.05-.08-1.06-1.95-3.07-3.39-1.5-1.08-3.01-1.5-4.42-1.5Z" fill="#002346"></path>
        </g>
        <g>
          <polygon points="636.34 599.56 638.99 651.68 683.22 651.68 686.22 600.05 636.34 599.56" fill="#fff"></polygon>
          <path d="M683.22,652.18h-44.23c-.27,0-.49-.21-.5-.48l-2.65-52.12c0-.14,.04-.27,.14-.37,.1-.1,.22-.16,.37-.15l49.88,.5c.14,0,.27,.06,.36,.16,.09,.1,.14,.24,.13,.37l-2.99,51.63c-.02,.27-.24,.47-.5,.47Zm-43.76-1.01h43.28l2.93-50.63-48.82-.48,2.6,51.11Z" fill="#002346"></path>
        </g>
        <path d="M670.76,599.81s-.03,0-.04,0c-.28-.02-.48-.26-.46-.54,.02-.21,1.73-20.78,15.88-30.37,8.38-5.68,19.37-6.43,32.66-2.25,.26,.08,.41,.37,.33,.63s-.36,.41-.63,.33c-12.98-4.08-23.67-3.37-31.78,2.12-13.75,9.31-15.43,29.41-15.44,29.61-.02,.26-.24,.47-.5,.47Z" fill="#002346"></path>
        <path d="M663.07,599.46c-.22,0-.42-.15-.48-.37-7.84-28.02,11.14-44.26,15.02-47.23,1.16-.89,2.52-1.94,3.83-3.07,34.46-29.66,14.53-62.87,14.32-63.2-.15-.24-.07-.55,.16-.69,.24-.15,.55-.07,.69,.16,.21,.34,20.61,34.26-14.52,64.49-1.33,1.14-2.7,2.21-3.87,3.11-3.79,2.9-22.33,18.76-14.67,46.16,.07,.27-.08,.55-.35,.62-.05,.01-.09,.02-.14,.02Z" fill="#002346"></path>
        <path d="M659.49,599.83c-.17,0-.33-.08-.43-.24-12.19-19.64-3.1-44.67-.02-51.87,.77-1.81,1.32-3.33,1.72-4.77,8.56-30.83-17.46-49.54-17.72-49.73-.23-.16-.28-.47-.12-.7,.16-.23,.47-.28,.7-.12,.27,.19,26.87,19.29,18.11,50.82-.41,1.48-.97,3.04-1.77,4.89-3.03,7.09-11.98,31.71-.05,50.94,.15,.24,.07,.55-.16,.69-.08,.05-.17,.08-.26,.08Z" fill="#002346"></path>
        <path d="M646.67,599.52s-.01,0-.02,0c-.28-.01-.49-.25-.48-.52,1.32-32.75-17.89-45.78-18.08-45.91-.23-.15-.3-.46-.14-.7,.15-.23,.46-.3,.7-.14,.2,.13,19.88,13.44,18.54,46.79-.01,.27-.23,.48-.5,.48Z" fill="#002346"></path>
      </g>
      <g>
        <polygon points="659.04 342.67 670.37 314.34 657.17 308.13 635.59 342.67 603.23 342.67 603.23 351.21 690.93 351.21 690.93 342.67 659.04 342.67" fill="#fff"></polygon>
        <path d="M691.39,351.67h-88.62v-9.46h32.56l21.67-34.67,13.96,6.57-11.24,28.1h31.68v9.46Zm-87.7-.92h86.78v-7.62h-32.12l11.42-28.56-12.43-5.85-21.5,34.41h-32.15v7.62Z" fill="#002346"></path>
      </g>
      <g>
        <path d="M598.63,133.29h8.54v24.98c0,2.36-1.91,4.27-4.27,4.27h0c-2.36,0-4.27-1.91-4.27-4.27v-24.98h0Z" transform="translate(1133.81 -173.8) rotate(135)" fill="#fff"></path>
        <path d="M610.22,161.93l-17.99-17.99c-.89-.89-1.39-2.08-1.39-3.34s.49-2.45,1.39-3.34c.89-.89,2.08-1.39,3.34-1.39s2.45,.49,3.34,1.39l17.99,17.99-6.69,6.69Zm-14.65-25.14c-1.02,0-1.97,.4-2.69,1.12s-1.12,1.68-1.12,2.69,.4,1.97,1.12,2.69l17.34,17.34,5.39-5.39-17.34-17.34c-.72-.72-1.68-1.12-2.69-1.12Z" fill="#002346"></path>
      </g>
      <g>
        <circle cx="590.43" cy="142.82" r="3.88" fill="#e6e7e8"></circle>
        <path d="M590.43,147.16c-2.39,0-4.34-1.95-4.34-4.34s1.95-4.34,4.34-4.34,4.34,1.95,4.34,4.34-1.95,4.34-4.34,4.34Zm0-7.76c-1.89,0-3.42,1.53-3.42,3.42s1.53,3.42,3.42,3.42,3.42-1.53,3.42-3.42-1.53-3.42-3.42-3.42Z" fill="#002346"></path>
      </g>
      <g>
        <path d="M597.41,200.25l-64.42-52s16.7-19.44,40.87-13.79c11.92,2.78,22.11,10.7,27.79,21.53,5.39,10.28,8.39,25.75-4.23,44.26Z" fill="#4800ff"></path>
        <path d="M597.51,200.92l-65.18-52.61,.31-.36c.17-.2,17.16-19.58,41.32-13.94,12.08,2.82,22.32,10.75,28.09,21.77,5.2,9.92,8.69,25.74-4.26,44.73l-.28,.41Zm-63.85-52.72l63.65,51.38c12.36-18.43,8.97-33.74,3.93-43.37-5.65-10.78-15.67-18.54-27.48-21.3-21.81-5.09-37.67,10.7-40.09,13.29Z" fill="#002346"></path>
      </g>
    </g>
  </g>
</svg>
