<?xml version="1.0" encoding="UTF-8"?>
<svg xmlns="http://www.w3.org/2000/svg" id="a" width="865.76" height="682.89" viewBox="0 0 865.76 682.89">
  <path d="M281.12,132.1s4.47,13.49-4.9,22.25c-9.37,8.76-1.48-23.82-1.48-23.82l6.38,1.57Z" fill="#002346" stroke="#002346" stroke-miterlimit="10"></path>
  <path d="M747.5,59.08c4.88-12.18,17.79-38.17,31.93-15.38,0,0,4,5,12,1,0,0,14.93-5.81,13.06,6-.32,2.03-1.12,3.95-2.23,5.68-2.54,3.96-7.72,14.01,.17,20.32,0,0,20.21,14.94,3.79,20.1-1.93,.61-3.96,.81-5.98,.76-4.72-.12-15.7,.58-18.81,9.13,0,0-8,26-26,22,0,0-10-4-6-19,0,0,3-12-6-11,0,0-12.56,1.32-19.95-1.41-2.9-1.07-4.41-4.28-3.44-7.22,.81-2.44,2.58-5.52,6.38-8.37l13.91-12.44c3.13-2.8,5.6-6.27,7.16-10.17Z" fill="#000000" stroke="#002346" stroke-miterlimit="10"></path>
  <rect x="575.59" y="119.4" width="173.33" height="489" fill="#fff" stroke="#002346" stroke-miterlimit="10"></rect>
  <polygon points="748.93 119.4 821.36 119.4 821.36 608.72 748.93 608.4 748.93 119.4" fill="#e6e6e6" stroke="#002346" stroke-miterlimit="10"></polygon>
  <rect x="591.09" y="132.37" width="145.5" height="79.71" fill="none" stroke="#002346" stroke-linecap="round" stroke-linejoin="round"></rect>
  <rect x="591.09" y="226" width="145.5" height="79.71" fill="none" stroke="#002346" stroke-linecap="round" stroke-linejoin="round"></rect>
  <rect x="591.09" y="317.72" width="145.5" height="79.71" fill="none" stroke="#002346" stroke-linecap="round" stroke-linejoin="round"></rect>
  <rect x="591.09" y="408.82" width="145.5" height="79.71" fill="none" stroke="#002346" stroke-linecap="round" stroke-linejoin="round"></rect>
  <rect x="591.09" y="501.18" width="145.5" height="79.71" fill="none" stroke="#002346" stroke-linecap="round" stroke-linejoin="round"></rect>
  <path d="M441.43,83.7c0-30-9-30-9-30h-8.72c-1.34,0-2.51-.91-2.83-2.21l-1.45-5.79c-5-17-24-15-24-15-28,0-20,53-20,53,1,10-3,9-3,9-4,0-4-5-4-5,0-12-11-13-11-13-.12-.02-.24-.04-.36-.06-7.79-1.17-15.14,4.02-16.76,11.73-1.81,8.63-5.11,29.38-4.38,63.82,0,0-2.5,48.5,9.5,53.5,0,0,7,1,7,13,0,0-7,81,27,86,0,0,23,5,27-25l5-40s1-19,7-9c0,0,5,14,16,10,0,0,8-2,8-24V124.7l-1-41Z" fill="#000000" stroke="#002346" stroke-miterlimit="10"></path>
  <g>
    <rect x="338.86" y="351.49" width="13.32" height="223.36" fill="#e6e6e6" stroke="#002346" stroke-miterlimit="10"></rect>
    <rect x="397.26" y="351.49" width="13.32" height="223.36" fill="#e6e6e6" stroke="#002346" stroke-miterlimit="10"></rect>
    <rect x="258.94" y="426.28" width="90.16" height="15.37" fill="#fff" stroke="#002346" stroke-miterlimit="10"></rect>
    <rect x="229.23" y="516.44" width="90.16" height="15.37" fill="#fff" stroke="#002346" stroke-miterlimit="10"></rect>
    <polygon points="275.34 352.51 201.57 574.84 216.93 574.84 291.73 352.51 275.34 352.51" fill="#fff" stroke="#002346" stroke-miterlimit="10"></polygon>
    <polygon points="371.65 352.51 297.88 574.84 313.24 574.84 388.04 352.51 371.65 352.51" fill="#fff" stroke="#002346" stroke-miterlimit="10"></polygon>
    <path d="M312.22,261.32h74.79v72.89c0,2.18-1.77,3.95-3.95,3.95h-66.89c-2.18,0-3.95-1.77-3.95-3.95v-72.89h0Z" fill="#fff" stroke="#002346" stroke-miterlimit="10"></path>
    <rect x="308.12" y="256.2" width="82.99" height="5.12" fill="#fff" stroke="#002346" stroke-miterlimit="10"></rect>
    <path d="M319.42,256.43s-1.53,5.1,2.55,7.85c1.16,.78,2.57,1.09,3.97,1.06,2.67-.05,8.3,.31,9.84,4.18,0,0,5.84,8.77,11.83,.66,.46-.62,1.02-1.17,1.7-1.54,1.52-.83,4.24-1.48,6.96,1.91,0,0,7.42,5.57,10.79-3.61,.76-2.08,3.23-3.01,5.08-1.79,.04,.02,.07,.05,.11,.07,1.36,.93,2.97,1.47,4.61,1.26,3.16-.4,7.37-2.36,6.05-10.29l-63.49,.23Z" fill="#000000" stroke="#002346" stroke-miterlimit="10"></path>
    <path d="M312.22,261.32s6.94,22.72,22.31,34.97c8.63,6.88,20.67,7.95,30.07,2.17,8.32-5.12,17.8-15.62,22.41-37.14" fill="none" stroke="#002346" stroke-linecap="round" stroke-linejoin="round"></path>
    <rect x="371.65" y="338.68" width="47.13" height="16.39" fill="#e6e6e6" stroke="#002346" stroke-miterlimit="10"></rect>
    <rect x="269.7" y="338.68" width="101.43" height="16.39" fill="#fff" stroke="#002346" stroke-miterlimit="10"></rect>
  </g>
  <path d="M385.97,72.04l-85.93,398.75c-.54,2.53-3.03,4.14-5.56,3.6h0c-2.53-.54-4.14-3.03-3.6-5.56L375.94,70.17l10.02,1.87Z" fill="#fff" stroke="#002346" stroke-miterlimit="10"></path>
  <path d="M420.99,52.94l-1.23,5.82-1.76,8.38c-.35,1.65-1.97,2.71-3.63,2.36l-62.83-13.24c-1.4-.29-2.3-1.67-2-3.08l3.18-15.09c.29-1.41,1.67-2.31,3.08-2.01l62.83,13.23c1.65,.35,2.71,1.97,2.36,3.63Z" fill="#fff" stroke="#002346" stroke-miterlimit="10"></path>
  <polyline points="419.84 58.29 426.43 59.7 422.43 79.7 340.43 62.7 345.43 42.7 351.39 44.23" fill="none" stroke="#002346" stroke-linecap="round" stroke-linejoin="round"></polyline>
  <path d="M420.99,52.94l-1.23,5.82c-4.09,2.23-8.94-1.19-8.94-1.19-3.25-1.55-6.17,1.36-6.17,1.36-7.73,4.62-9.77-4.64-9.77-4.64-1.88-7.04-9.43-.19-9.43-.19l-4.64,3.94c-9.44,5.64-13.53-12.88-13.53-12.88-1.88-7.04-7.02-3.96-7.02-3.96-5.67,2.22-7.54-3.11-7.54-3.11,.29-1.41,1.67-2.31,3.08-2.01l62.83,13.23c1.65,.35,2.71,1.97,2.36,3.63Z" fill="#000000" stroke="#002346" stroke-miterlimit="10"></path>
  <rect x="531.29" y="505.55" width="121" height="65" fill="#7478f5" stroke="#002346" stroke-linecap="round" stroke-linejoin="round"></rect>
  <polygon points="172.29 485.55 183.29 563.55 218.29 563.55 235.29 506.55 225.29 479.55 205.29 477.55 172.29 485.55" fill="#f0b1bf" stroke="#002346" stroke-miterlimit="10"></polygon>
  <path d="M221.29,481.55l3,10-46,77h67l36-61s13.39-25.08,.7-55.04c0,0-31.7,7.04-33.7,7.04s-34,12-34,12c0,0-4,7-2,8,2,1,9,2,9,2Z" fill="#f0b1bf" stroke="#002346" stroke-miterlimit="10"></path>
  <path d="M146.32,350.77s-1.04,5.79,.96,21.79l12,96,2,16s29,9,60-3l-2-6s50-1,68-30l-35-92-105.96-2.79Z" fill="#000000" stroke="#002346" stroke-miterlimit="10"></path>
  <polygon points="289.22 217.94 313.29 206.55 325.29 237.55 273.29 270.55 286.29 211.55 289.22 217.94" fill="#f0b1bf" stroke="#002346" stroke-miterlimit="10"></polygon>
  <path d="M313.29,206.55l9-4s5-12,15-14l17.83-2.43c2.37-.32,4.61,1.19,5.19,3.51h0c.56,2.25-.61,4.58-2.75,5.47l-8.27,3.45-7,34h-11l-6,5-12-31Z" fill="#7478f5" stroke="#002346" stroke-linecap="round" stroke-linejoin="round"></path>
  <path d="M349.29,198.55l-5,2s3,9-4,11" fill="none" stroke="#002346" stroke-linecap="round" stroke-linejoin="round"></path>
  <path d="M360.29,201.55s-4-7,3-9c0,0,11-5,12,4,0,0,1,5-5,6,0,0,4,5-1,9,0,0,6,7-3,10,0,0,1.55,7.74-6.25,8.92-2.45,.37-4.99-.09-7.11-1.36-2.4-1.44-4.44-3.96,.36-7.56,0,0-3-7,4-9,0,0-6-8,3-11Z" fill="#7478f5" stroke="#002346" stroke-linecap="round" stroke-linejoin="round"></path>
  <path d="M224.29,164.55l-2.9,26.92c-1.62,9.45,5.66,18.08,15.25,18.08h0c7.8,0,14.38-5.81,15.35-13.55l1.31-20.45-26-16-3,5Z" fill="#f0b1bf" stroke="#002346" stroke-miterlimit="10"></path>
  <rect x="233.71" y="119.34" width="41.76" height="63.04" rx="20.88" ry="20.88" transform="translate(63.55 -75.15) rotate(19.14)" fill="#f0b1bf" stroke="#002346" stroke-miterlimit="10"></rect>
  <ellipse cx="234.29" cy="199.55" rx="22" ry="17" fill="#fff" stroke="#002346" stroke-miterlimit="10"></ellipse>
  <path d="M502.29,366.55l6,64,19-11-4,94h130l-1-35-20-33-7-40,44-16s-3.81-33.32-33.72-41.44c-1.34-.36-2.72-.57-4.11-.6l-80.17-1.96-9.52,.35c-11.29,.42-22.07,4.82-30.43,12.42l-9.05,8.23Z" fill="#000000" stroke="#002346" stroke-miterlimit="10"></path>
  <path d="M669.29,389.55l15,56s9,28-19,37l-45,12-16-38,28-11-7-40,44-16Z" fill="#f0b1bf" stroke="#002346" stroke-miterlimit="10"></path>
  <line x1="647.29" y1="439.55" x2="632.29" y2="445.55" fill="none" stroke="#002346" stroke-linecap="round" stroke-linejoin="round"></line>
  <path d="M571.42,467.25l2.87,4.3-12.14,5.66c-2.57,1.2-3.83,4.28-2.57,6.82,.59,1.19,1.7,2.19,3.7,2.52,0,0-1,10,8,8,0,0-1,5,7,5,0,0-2,8,10,5l32-10-16-38-11,4-19.37,1.55c-2.52,.2-3.9,3.04-2.5,5.15Z" fill="#7478f5" stroke="#002346" stroke-linecap="round" stroke-linejoin="round"></path>
  <line x1="563.29" y1="486.55" x2="582.29" y2="477.55" fill="none" stroke="#002346" stroke-linecap="round" stroke-linejoin="round"></line>
  <line x1="571.29" y1="494.55" x2="585.29" y2="487.55" fill="none" stroke="#002346" stroke-linecap="round" stroke-linejoin="round"></line>
  <line x1="578.29" y1="499.55" x2="589.29" y2="494.55" fill="none" stroke="#002346" stroke-linecap="round" stroke-linejoin="round"></line>
  <path d="M490.29,332.55l5.84,37.97c.07,.45,.61,.66,.96,.36l5.2-4.33,6,64s-36,22-48-14c0,0-3-8-4-26l-2-45,36-13Z" fill="#f0b1bf" stroke="#002346" stroke-miterlimit="10"></path>
  <path d="M452.29,340.55v6l38.61-10.81s.39-12.19-11.61-24.19c0,0-27-20-40-12,0,0-12,6-13,13,0,0-3,11,4,11,0,0,2.8,7.47,6.49,12.52,2.08,2.85,5.44,4.48,8.97,4.48h6.54Z" fill="#7478f5" stroke="#002346" stroke-linecap="round" stroke-linejoin="round"></path>
  <path d="M430.29,323.55s-1-5,3-6c0,0,3-2,8,4l.16,.16c2.16,2.16,5.62,2.26,7.9,.23l.64-.56c2.38-2.11,2.59-5.75,.48-8.13l-2.37-2.67c-.98-1.1-2.68-1.15-3.72-.11l-6.08,6.08" fill="none" stroke="#002346" stroke-linecap="round" stroke-linejoin="round"></path>
  <line x1="450.46" y1="313.25" x2="441.45" y2="321.71" fill="none" stroke="#002346" stroke-linecap="round" stroke-linejoin="round"></line>
  <path d="M203.29,191.55h64s34,1,18,46l-31,101,1,14s-72,32-114-6l34-129s5-29,28-26Z" fill="#7478f5" stroke="#002346" stroke-linecap="round" stroke-linejoin="round"></path>
  <path d="M281.18,249.48l-45.97-.84c-2.35-.04-3.9-2.45-2.97-4.61l11.04-25.48" fill="none" stroke="#002346" stroke-linecap="round" stroke-linejoin="round"></path>
  <path d="M235.89,248.64l-14.6,41.91s-6,23,8,36l55,40,23-30-42.12-32.42,16.12-54.58-45.4-.91Z" fill="#f0b1bf" stroke="#002346" stroke-miterlimit="10"></path>
  <path d="M284.28,366.49l6.75,3.94c.81,.47,1.39,1.27,1.56,2.19,.56,3.07,2.87,10.39,12.35,13.18l10.38,10.64s5.14,3.82,7.92-2.28c0,0,7.07,1.75,6.75-7.24,0,0,7.03,.75,3.65-10.13,0,0,5.9-.95,4.79-6.87-.34-1.8-1.29-3.42-2.59-4.71l-28.55-28.66-23.01,29.93Z" fill="#7478f5" stroke="#002346" stroke-linecap="round" stroke-linejoin="round"></path>
  <line x1="323.24" y1="394.17" x2="314.9" y2="384.46" fill="none" stroke="#002346" stroke-linecap="round" stroke-linejoin="round"></line>
  <line x1="329.99" y1="386.93" x2="321.61" y2="376.21" fill="none" stroke="#002346" stroke-linecap="round" stroke-linejoin="round"></line>
  <line x1="333.64" y1="376.79" x2="327.36" y2="369.01" fill="none" stroke="#002346" stroke-linecap="round" stroke-linejoin="round"></line>
  <line x1="190.29" y1="401.55" x2="219.29" y2="475.55" fill="none" stroke="#002346" stroke-linecap="round" stroke-linejoin="round"></line>
  <polygon points="815.42 652.14 15.76 651 15.76 630.48 815.42 630.48 815.42 652.14" fill="#002346" stroke="#002346" stroke-miterlimit="10"></polygon>
  <path d="M815.42,631.66H15.76l67.04-76.61H849.04c.27,0,.46,.28,.35,.53l-33.96,76.08Z" fill="#fff" stroke="#002346" stroke-miterlimit="10"></path>
  <path d="M815.95,652.09l33.73-76.95c.22-.5,.33-1.05,.32-1.6l-.37-18.25c0-.06-.08-.07-.1-.02l-34.1,76.39v20.32c0,.3,.42,.39,.54,.11Z" fill="#002346" stroke="#002346" stroke-miterlimit="10"></path>
  <line x1="360.29" y1="201.55" x2="370.29" y2="202.55" fill="none" stroke="#002346" stroke-linecap="round" stroke-linejoin="round"></line>
  <line x1="357.29" y1="212.55" x2="369.29" y2="211.55" fill="none" stroke="#002346" stroke-linecap="round" stroke-linejoin="round"></line>
  <line x1="353.29" y1="221.55" x2="366.29" y2="221.55" fill="none" stroke="#002346" stroke-linecap="round" stroke-linejoin="round"></line>
  <line x1="527.29" y1="419.55" x2="527.29" y2="395.55" fill="none" stroke="#002346" stroke-linecap="round" stroke-linejoin="round"></line>
  <path d="M107.35,548.68l9.8,55.52c.44,2.38,2.05,4.39,4.3,5.28,12.91,5.13,32.35,9.1,56.47,9.78,28.6,.81,51.48-5.99,65.56-11.54,2.4-.95,4.1-3.11,4.43-5.67,2.33-18.04,4.66-36.09,6.98-54.13l-147.56,.76Z" fill="#fff" stroke="#002346" stroke-miterlimit="10"></path>
  <path d="M100.94,531.96v10.37c0,2.34,1.42,4.44,3.59,5.32,9.32,3.77,36.9,12.64,84.65,9.66,0,0,41.67,0,68.24-10.02,1.86-.7,3.11-2.47,3.11-4.46v-10.87H100.94Z" fill="#fff" stroke="#002346" stroke-miterlimit="10"></path>
  <path d="M100.98,535.62h-2.97c-1.49,0-2.7,1.21-2.7,2.7v12.53c0,1.49,1.21,2.7,2.7,2.7h1.11c1.07,0,2.04,.62,2.47,1.61,2.56,5.85,12.93,26.08,36.89,34.07,0,0,15.02,3.76,18.78,9.39,0,0,1.88,3.76,7.51,3.76" fill="none" stroke="#002346" stroke-linecap="round" stroke-linejoin="round"></path>
  <path d="M260.49,535.62h2.97c1.49,0,2.7,1.21,2.7,2.7v12.53c0,1.49-1.21,2.7-2.7,2.7h-1.11c-1.07,0-2.04,.62-2.47,1.61-2.56,5.85-12.93,26.08-36.89,34.07,0,0-15.02,3.76-18.78,9.39,0,0-1.88,3.76-7.51,3.76" fill="none" stroke="#002346" stroke-linecap="round" stroke-linejoin="round"></path>
  <path d="M107.44,536.83c.42,8.61,5.13,11.15,9.37,11.66,3.03,.37,5.93-.89,8.12-3.02s6.06-1.31,6.06-1.31c0,0,7.19,1.44,7.73,13.12,.12,2.59-.18,5.17-.77,7.69-.72,3.05-1.54,8.67,1.48,10.66,.57,.38,1.27,.53,1.96,.55,2.37,.05,8-.91,6.5-11.36,0,0-3.02-12.07,4.47-9.16,1.7,.66,3.01,2.04,3.81,3.69,1,2.07,3.08,4.82,6.74,3.6,0,0,3.76,0,3.76-5.63,0,0,1.88-5.63,7.51,1.88,0,0,7.51,7.51,15.02-3.76,0,0,7.51-11.27,24.41-9.39,0,0,35.67,1.88,41.31-9.39,0,0-22.23,9.25-88.23,7.25,0,0-25,0-51-5l-8.23-2.07Z" fill="#7478f5" stroke="#002346" stroke-linecap="round" stroke-linejoin="round"></path>
  <ellipse cx="180.74" cy="531.96" rx="79.8" ry="12.2" fill="#e6e6e6" stroke="#002346" stroke-miterlimit="10"></ellipse>
  <rect x="164.78" y="596.73" width="33.8" height="11.27" rx="5.63" ry="5.63" fill="#7478f5" stroke="#002346" stroke-linecap="round" stroke-linejoin="round"></rect>
  <path d="M468.63,348.2s-5.8-17.39-18.31-26.66c-7.02-5.2-16.74-5.91-24.26-1.38-6.66,4.02-14.2,12.18-17.72,28.76" fill="none" stroke="#002346" stroke-linecap="round" stroke-linejoin="round"></path>
  <g>
    <path d="M696.45,526.92h84.06v75.59c0,3.73-3.03,6.76-6.76,6.76h-70.54c-3.73,0-6.76-3.03-6.76-6.76v-75.59h0Z" fill="#fff" stroke="#002346" stroke-miterlimit="10"></path>
    <rect x="691.85" y="521.43" width="93.27" height="5.49" fill="#fff" stroke="#002346" stroke-miterlimit="10"></rect>
    <path d="M696.45,526.92s7.8,24.35,25.08,37.48c9.7,7.37,23.23,8.52,33.79,2.32,9.36-5.49,20.01-16.74,25.19-39.8" fill="none" stroke="#002346" stroke-linecap="round" stroke-linejoin="round"></path>
    <path d="M712.71,521.55s1.59,12.7,16.28,7.45c0,0,3.15,8.39,17.84,8.39,0,0,11.68,.14,13.18-16.19l-47.3,.35Z" fill="#7ccf92" stroke="#002346" stroke-miterlimit="10"></path>
  </g>
  <g>
    <path d="M538.18,537.14h72.6v65.29c0,3.22-2.62,5.84-5.84,5.84h-60.93c-3.22,0-5.84-2.62-5.84-5.84v-65.29h0Z" fill="#fff" stroke="#002346" stroke-miterlimit="10"></path>
    <rect x="534.21" y="532.4" width="80.56" height="4.74" fill="#fff" stroke="#002346" stroke-miterlimit="10"></rect>
    <path d="M538.18,537.14s6.74,21.03,21.66,32.37c8.37,6.37,20.07,7.36,29.19,2.01,8.08-4.74,17.28-14.46,21.76-34.38" fill="none" stroke="#002346" stroke-linecap="round" stroke-linejoin="round"></path>
    <path d="M552.22,532.5s1.37,10.97,14.06,6.43c0,0,2.72,7.25,15.41,7.25,0,0,10.09,.12,11.39-13.99l-40.85,.3Z" fill="#438dca" stroke="#002346" stroke-miterlimit="10"></path>
  </g>
  <rect x="366.43" y="496.7" width="104" height="8" fill="#7ccf92" stroke="#002346" stroke-miterlimit="10"></rect>
  <path d="M370.43,504.7h96v99.73c0,2.36-1.92,4.27-4.27,4.27h-87.45c-2.36,0-4.27-1.92-4.27-4.27v-99.73h0Z" fill="#fff" stroke="#002346" stroke-miterlimit="10"></path>
  <rect x="382.43" y="512.7" width="71" height="10" fill="#e6e6e6" stroke="#002346" stroke-miterlimit="10"></rect>
  <path d="M370.43,534.7h37.8c2.32,0,4.2,1.88,4.2,4.2v46.61c0,2.32-1.88,4.2-4.2,4.2h-37.8v-55h0Z" fill="#7ccf92" stroke="#002346" stroke-miterlimit="10"></path>
  <rect x="342.45" y="298.7" width="15.65" height="5.22" rx="2.61" ry="2.61" fill="#7478f5" stroke="#002346" stroke-linecap="round" stroke-linejoin="round"></rect>
  <path d="M408.34,352.14h60.29v54.21c0,2.68-2.17,4.85-4.85,4.85h-50.59c-2.68,0-4.85-2.17-4.85-4.85v-54.21h0Z" fill="#fff" stroke="#002346" stroke-miterlimit="10"></path>
  <rect x="405.04" y="348.2" width="66.89" height="3.94" fill="#fff" stroke="#002346" stroke-miterlimit="10"></rect>
  <path d="M456.26,348.2l-.11,3.94-.07,2.56c-1,12-11,6-11,6,1,19-11,16-11,16-8-1-7-22-7-22-3.15,.39-4.77-.88-5.59-2.56-.61-1.26-.78-2.74-.78-3.94h35.55Z" fill="#438dca" stroke="#002346" stroke-miterlimit="10"></path>
  <path d="M96.5,134.08c4.88-12.18,17.79-38.17,31.93-15.38,0,0,4,5,12,1,0,0,14.93-5.81,13.06,6-.32,2.03-1.12,3.95-2.23,5.68-2.54,3.96-7.72,14.01,.17,20.32,0,0,20.21,14.94,3.79,20.1-1.93,.61-3.96,.81-5.98,.76-4.72-.12-15.7,.58-18.81,9.13,0,0-8,26-26,22,0,0-10-4-6-19,0,0,3-12-6-11,0,0-12.56,1.32-19.95-1.41-2.9-1.07-4.41-4.28-3.44-7.22,.81-2.44,2.58-5.52,6.38-8.37l13.91-12.44c3.13-2.8,5.6-6.27,7.16-10.17Z" fill="#000000" stroke="#002346" stroke-miterlimit="10"></path>
  <polyline points="625.29 405.55 617.21 408.68 611.43 372.7" fill="none" stroke="#002346" stroke-linecap="round" stroke-linejoin="round"></polyline>
  <path d="M230.43,152.7s.03,6.32,2,6c1.97-.32,14.17-14.17,15.24-19.88,1.07-5.71,1.35-8.69,1.35-8.69,0,0,22.02,7.18,29.76,4.53,7.75-2.65-2.68-11.95-15.73-14.83-13.06-2.88-19.76,.63-19.76,.63,0,0-7.09-4.36-11.89-.96-4.8,3.41-11.98,31.2-11.98,31.2,0,0,2.66-5.65,11,2Z" fill="#002346" stroke="#002346" stroke-miterlimit="10"></path>
  <path d="M231.93,149.2s-4,11-3.33,19.22c.53,6.52,9.87,22.41,23.62,22.16,13.75-.25,17.05-16.71,17.05-16.71l-10.69-3.45s-1.8-2.36-4.25-4.06c-2.46-1.71-6.67-1.77-6.67-1.77l-15.73-15.39Z" fill="#002346" stroke="#002346" stroke-miterlimit="10"></path>
  <path d="M261.64,175.53s-4.7,2.29-7.59,1.05-3.32-7.25-3.32-7.25l10.91,6.2Z" fill="#f0b1bf" stroke="#002346" stroke-miterlimit="10"></path>
  <circle cx="226.29" cy="155.55" r="8.14" fill="#f0b1bf" stroke="#002346" stroke-miterlimit="10"></circle>
  <path d="M273.56,174.91s-3.12-9.1-6.56-9.4c-3.44-.31-6.42,3.64-6.42,3.64,0,0-1.46-6.49-6.01-6.78-4.55-.29-13.23-3.4-13.91-2.06-.67,1.33,1.57,2.87,1.57,2.87,0,0,18.95,10.82,31.33,11.74Z" fill="#002346" stroke="#002346" stroke-miterlimit="10"></path>
  <path d="M251.94,142.41s6.37-1.27,9.35,2.55" fill="none" stroke="#002346" stroke-linecap="round" stroke-linejoin="round" stroke-width="2"></path>
  <path d="M267.66,145.8s4.67-1.27,7.65,2.55" fill="none" stroke="#002346" stroke-linecap="round" stroke-linejoin="round" stroke-width="2"></path>
  <circle cx="255.43" cy="150.7" r="1" fill="#002346" stroke="#002346" stroke-miterlimit="10"></circle>
  <circle cx="270.43" cy="155.7" r="1" fill="#002346" stroke="#002346" stroke-miterlimit="10"></circle>
  <path d="M264.9,152.39l.67,9.4c.08,1.16-1.07,2.02-2.16,1.6l-3.19-1.23" fill="none" stroke="#002346" stroke-linecap="round" stroke-linejoin="round"></path>
  <circle cx="578.44" cy="355.33" r="22" fill="#fff" stroke="#002346" stroke-miterlimit="10"></circle>
  <path d="M600.7,330.67c-8.89-1.65-43.27-39.97-43.27-39.97,0,0-3.73-18.23-.31-20.3,3.42-2.05,6.67,1.09,6.67,1.09,0,0,11.33-1.79,21.71-2.2,1.32-.06,2.61-.09,3.87-.09,3.81-.02,7.27,.23,9.66,.9,9.41,2.67,15.73,18.1,15.73,18.1,0,0,4.72-.43,6.71,5.99,2.01,6.45-11.9,38.13-20.77,36.48Z" fill="#002346" stroke="#002346" stroke-miterlimit="10"></path>
  <path d="M564.29,331.55l-1.08,20.01c-.5,9.32,6.76,17.22,16.09,17.51h0c8.93,.27,16.47-6.57,17.08-15.48l1.91-28.04-4-5-30,11Z" fill="#f0b1bf" stroke="#002346" stroke-miterlimit="10"></path>
  <rect x="553.47" y="274.45" width="48.86" height="64.01" rx="24.43" ry="24.43" transform="translate(99.96 -140.15) rotate(15.12)" fill="#f0b1bf" stroke="#002346" stroke-miterlimit="10"></rect>
  <circle cx="603.29" cy="321.55" r="8.14" fill="#f0b1bf" stroke="#002346" stroke-miterlimit="10"></circle>
  <path d="M559.43,285.7s17.28-6.15,20.86-3.2c3.58,2.96,10.56,29.57,23.14,24.2,12.58-5.37,3.31-23,3.31-23,0,0-40.53-24.32-47.31,2Z" fill="#002346" stroke="#002346" stroke-miterlimit="10"></path>
  <path d="M563.25,292.88s4.54-.93,6.34,2.99" fill="none" stroke="#002346" stroke-linecap="round" stroke-linejoin="round" stroke-width="2"></path>
  <path d="M576.79,297.51s4.38-1.5,6.66,2.17" fill="none" stroke="#002346" stroke-linecap="round" stroke-linejoin="round" stroke-width="2"></path>
  <circle cx="563.01" cy="301.4" r="1.57" fill="#002346" stroke="#002346" stroke-miterlimit="10"></circle>
  <circle cx="577.16" cy="306.12" r="1.57" fill="#002346" stroke="#002346" stroke-miterlimit="10"></circle>
  <path d="M567.2,304.55l-4.91,8.84c-.63,1.14-.05,2.57,1.2,2.94l2.67,.8" fill="none" stroke="#002346" stroke-linecap="round" stroke-linejoin="round"></path>
  <path d="M565.39,321.92s4.83,2.07,7.25-2.14" fill="none" stroke="#002346" stroke-linecap="round" stroke-linejoin="round"></path>
  <path d="M600.43,322.7s3,0,4-3" fill="none" stroke="#002346" stroke-linecap="round" stroke-linejoin="round"></path>
  <g>
    <circle cx="580.89" cy="316.23" r="1.32" fill="#efa3b7"></circle>
    <circle cx="585.97" cy="317.66" r="1.32" fill="#efa3b7"></circle>
    <circle cx="582" cy="322.02" r="1.32" fill="#efa3b7"></circle>
  </g>
</svg>
